<?xml version="1.0" standalone="no"?>
<!DOCTYPE svg PUBLIC "-//W3C//DTD SVG 20010904//EN"
 "http://www.w3.org/TR/2001/REC-SVG-20010904/DTD/svg10.dtd">
<svg version="1.0" xmlns="http://www.w3.org/2000/svg"
 width="626.000000pt" height="626.000000pt" viewBox="0 0 626.000000 626.000000"
 preserveAspectRatio="xMidYMid meet">

<g transform="translate(0.000000,626.000000) scale(0.100000,-0.100000)"
fill="#000000" stroke="none">
<path d="M1509 5251 l-29 -30 2 -978 3 -978 1598 -3 1597 -2 0 984 c0 954 -1
985 -19 1007 l-19 24 -1552 3 -1551 2 -30 -29z m3031 -976 l0 -875 -1460 0
-1460 0 0 875 0 875 1460 0 1460 0 0 -875z"/>
<path d="M5157 1832 c-24 -27 -23 -98 2 -112 46 -24 81 1 81 59 0 61 -48 91
-83 53z"/>
<path d="M1694 992 c-50 -84 -310 -490 -557 -867 l-78 -120 303 -3 c233 -2
305 1 314 10 6 7 96 143 199 303 103 160 198 301 211 315 24 26 114 175 114
188 0 6 -238 151 -401 244 l-48 28 -57 -98z"/>
<path d="M4140 939 c-118 -71 -216 -133 -217 -137 -1 -4 27 -52 62 -107 35
-55 143 -234 242 -397 l178 -297 302 0 302 -1 -262 439 c-144 241 -286 482
-316 535 -29 53 -58 96 -65 95 -6 0 -108 -59 -226 -130z"/>
</g>
</svg>
